# xmcd
#
# Track frame offsets:
# 150
# 7662
# 16380
# 24301
# 29593
# 36013
# 43570
# 52782
# 58839
# 65610
# 72055
#
# Disc length: 1019 seconds
#
# Revision: 1
# Processed by: cddbd v1.5.2PL0 Copyright (c) Steve Scherf et al.
# Submitted via: CedeCatalogueitor 2.6.0.6 http://personales.ya.com/cdcatalogueitor
#
DISCID=8103f90b
DTITLE=Centella - Centella
DYEAR=1900
DGENRE=
TTITLE0=Amenaza
TTITLE1=El Hervor
TTITLE2=Temperatura
TTITLE3=Alturas
TTITLE4=Patadas Bravas
TTITLE5=Electrodomestico
TTITLE6=Deriva
TTITLE7=Puñetazo
TTITLE8=Que Te Callaras
TTITLE9=Rayo Globular
TTITLE10=Desfile
EXTD=
EXTT0=
EXTT1=
EXTT2=
EXTT3=
EXTT4=
EXTT5=
EXTT6=
EXTT7=
EXTT8=
EXTT9=
EXTT10=
PLAYORDER=
